<svg width="332" height="53" viewBox="0 0 332 53" fill="none" xmlns="http://www.w3.org/2000/svg">
<path d="M26.968 38.192C27.0533 38.448 27.096 38.7467 27.096 39.088C27.1387 39.4293 27.16 39.7493 27.16 40.048C27.16 40.816 27.0747 41.5413 26.904 42.224C26.7333 42.9067 26.456 43.504 26.072 44.016C25.688 44.528 25.176 44.9547 24.536 45.296C23.9387 45.5947 23.1707 45.744 22.232 45.744C21.336 45.744 20.44 45.552 19.544 45.168C18.6907 44.784 17.624 44.2293 16.344 43.504L2.584 35.568C1.47467 34.1173 0.92 32.1973 0.92 29.808C0.92 28.016 1.176 26.6293 1.688 25.648C2.2 24.6667 2.94667 23.8987 3.928 23.344L21.528 13.104C23.6187 13.6587 25.0267 14.4267 25.752 15.408C26.52 16.3467 26.904 17.3707 26.904 18.48C26.904 19.9733 26.52 21.1467 25.752 22C25.0267 22.8107 23.9387 23.5787 22.488 24.304L11.224 30L26.968 38.192ZM289.962 52.784C289.364 52.8693 288.788 52.912 288.234 52.912C287.679 52.9547 287.167 52.976 286.698 52.976C284.906 52.976 283.519 52.592 282.538 51.824C281.599 51.056 281.13 49.8187 281.13 48.112C281.13 46.96 281.3 45.808 281.642 44.656C281.983 43.4613 282.282 42.416 282.538 41.52L293.802 0.879997C294.442 0.794665 295.039 0.751999 295.594 0.751999C296.148 0.709333 296.66 0.688 297.13 0.688C298.836 0.688 300.18 1.05067 301.162 1.776C302.186 2.50133 302.698 3.67466 302.698 5.296C302.698 6.53333 302.527 7.70666 302.186 8.816C301.844 9.92533 301.524 11.0347 301.226 12.144L289.962 52.784ZM305.051 20.656C304.966 20.4 304.902 20.1013 304.859 19.76C304.859 19.4187 304.859 19.0987 304.859 18.8C304.859 18.032 304.944 17.3067 305.115 16.624C305.286 15.9413 305.563 15.344 305.947 14.832C306.331 14.32 306.822 13.9147 307.419 13.616C308.059 13.2747 308.848 13.104 309.787 13.104C310.683 13.104 311.558 13.296 312.411 13.68C313.307 14.064 314.395 14.6187 315.675 15.344L329.435 23.28C330.544 24.7307 331.099 26.6507 331.099 29.04C331.099 30.832 330.843 32.2187 330.331 33.2C329.819 34.1813 329.072 34.9493 328.091 35.504L310.491 45.744C308.4 45.1893 306.971 44.4427 306.203 43.504C305.478 42.5227 305.115 41.4773 305.115 40.368C305.115 38.8747 305.478 37.7227 306.203 36.912C306.971 36.0587 308.08 35.2693 309.531 34.544L320.795 28.848L305.051 20.656Z" fill="#FFFF00"/>
<path d="M60.101 36.464C59.5463 36.9333 58.821 37.3173 57.925 37.616C57.0717 37.872 56.069 38 54.917 38C53.381 38 52.101 37.808 51.077 37.424C50.0957 37.04 49.4557 36.3787 49.157 35.44C47.9623 31.6853 46.981 28.656 46.213 26.352C45.445 24.0053 44.8477 21.9573 44.421 20.208H44.101C43.973 22.7253 43.8663 25.0293 43.781 27.12C43.7383 29.168 43.6957 31.1733 43.653 33.136C43.653 35.0987 43.6103 37.0827 43.525 39.088C43.4823 41.0933 43.397 43.312 43.269 45.744C42.7143 45.9573 41.989 46.128 41.093 46.256C40.197 46.4267 39.301 46.512 38.405 46.512C36.5277 46.512 35.0557 46.2133 33.989 45.616C32.965 45.0187 32.453 43.9307 32.453 42.352L34.309 9.712C34.6503 9.15733 35.397 8.56 36.549 7.92C37.701 7.28 39.3223 6.96 41.413 6.96C43.6743 6.96 45.445 7.32266 46.725 8.048C48.005 8.73066 48.9437 9.86133 49.541 11.44C49.925 12.464 50.3303 13.6373 50.757 14.96C51.2263 16.2827 51.6743 17.648 52.101 19.056C52.5703 20.464 53.0183 21.872 53.445 23.28C53.8717 24.6453 54.2557 25.8827 54.597 26.992H54.917C55.941 23.408 56.965 19.952 57.989 16.624C59.013 13.2533 59.9517 10.4373 60.805 8.176C61.445 7.83466 62.2557 7.55733 63.237 7.344C64.261 7.088 65.3917 6.96 66.629 6.96C68.7197 6.96 70.4263 7.28 71.749 7.92C73.0717 8.51733 73.8397 9.392 74.053 10.544C74.2237 11.3973 74.3943 12.72 74.565 14.512C74.7783 16.2613 74.9917 18.2453 75.205 20.464C75.4183 22.6827 75.6317 25.0293 75.845 27.504C76.0583 29.9787 76.2503 32.368 76.421 34.672C76.6343 36.9333 76.805 39.024 76.933 40.944C77.061 42.8213 77.1463 44.272 77.189 45.296C76.4637 45.7227 75.6957 46.0213 74.885 46.192C74.117 46.4053 73.1143 46.512 71.877 46.512C70.2557 46.512 68.8903 46.2347 67.781 45.68C66.6717 45.1253 66.0743 44.0373 65.989 42.416C65.733 37.7653 65.5623 33.584 65.477 29.872C65.4343 26.16 65.349 23.0453 65.221 20.528H64.901C64.4743 22.192 63.8557 24.2827 63.045 26.8C62.2343 29.3173 61.253 32.5387 60.101 36.464ZM98.429 7.536C99.2397 7.28 100.157 7.06666 101.181 6.896C102.248 6.72533 103.208 6.64 104.061 6.64C105.042 6.64 105.981 6.74667 106.877 6.96C107.816 7.13067 108.648 7.45067 109.373 7.92C110.098 8.34666 110.674 8.944 111.101 9.712C111.528 10.48 111.741 11.44 111.741 12.592V29.616H117.437C117.693 30.0853 117.949 30.704 118.205 31.472C118.461 32.24 118.589 33.0507 118.589 33.904C118.589 35.5253 118.226 36.6773 117.501 37.36C116.776 38.0427 115.858 38.384 114.749 38.384H111.741V45.936C111.272 46.0213 110.568 46.128 109.629 46.256C108.69 46.4267 107.794 46.512 106.941 46.512C106.002 46.512 105.17 46.4693 104.445 46.384C103.72 46.2987 103.101 46.1067 102.589 45.808C102.12 45.4667 101.757 44.9973 101.501 44.4C101.245 43.8027 101.117 42.992 101.117 41.968V38.384H85.053C84.0717 37.872 83.2183 37.1253 82.493 36.144C81.8103 35.12 81.469 33.8827 81.469 32.432C81.469 31.6213 81.5757 30.7253 81.789 29.744C82.0023 28.7627 82.365 27.9093 82.877 27.184L98.429 7.536ZM101.693 17.584H101.501L92.989 29.616H101.693V17.584ZM133.146 45.936C132.719 46.064 132.036 46.192 131.098 46.32C130.202 46.448 129.263 46.512 128.282 46.512C127.343 46.512 126.49 46.448 125.722 46.32C124.996 46.192 124.378 45.936 123.866 45.552C123.354 45.168 122.948 44.656 122.65 44.016C122.394 43.3333 122.266 42.4587 122.266 41.392V22.192C122.266 21.2107 122.436 20.3787 122.778 19.696C123.162 18.9707 123.695 18.3307 124.378 17.776C125.06 17.2213 125.892 16.7307 126.874 16.304C127.898 15.8347 128.986 15.4293 130.138 15.088C131.29 14.7467 132.484 14.4907 133.722 14.32C134.959 14.1067 136.196 14 137.434 14C139.482 14 141.103 14.4053 142.298 15.216C143.492 15.984 144.09 17.264 144.09 19.056C144.09 19.6533 144.004 20.2507 143.834 20.848C143.663 21.4027 143.45 21.9147 143.194 22.384C142.298 22.384 141.38 22.4267 140.442 22.512C139.503 22.5973 138.586 22.7253 137.69 22.896C136.794 23.0667 135.94 23.2587 135.13 23.472C134.362 23.6427 133.7 23.856 133.146 24.112V45.936ZM164.927 22.512C163.86 22.512 162.836 22.6827 161.855 23.024C160.916 23.3653 160.084 23.8773 159.359 24.56C158.676 25.2 158.121 26.0107 157.695 26.992C157.268 27.9733 157.055 29.1253 157.055 30.448C157.055 33.0933 157.801 35.0773 159.295 36.4C160.831 37.7227 162.687 38.384 164.863 38.384C166.143 38.384 167.252 38.2347 168.191 37.936C169.129 37.6373 169.961 37.3173 170.687 36.976C171.54 37.5733 172.18 38.2347 172.607 38.96C173.033 39.6427 173.247 40.4747 173.247 41.456C173.247 43.2053 172.415 44.5707 170.751 45.552C169.087 46.4907 166.783 46.96 163.839 46.96C161.151 46.96 158.719 46.576 156.543 45.808C154.367 44.9973 152.489 43.888 150.911 42.48C149.375 41.0293 148.18 39.3013 147.327 37.296C146.473 35.2907 146.047 33.072 146.047 30.64C146.047 27.824 146.495 25.3707 147.391 23.28C148.329 21.1467 149.588 19.3973 151.167 18.032C152.745 16.6667 154.559 15.6427 156.607 14.96C158.697 14.2773 160.895 13.936 163.199 13.936C166.271 13.936 168.639 14.4907 170.303 15.6C171.967 16.7093 172.799 18.1387 172.799 19.888C172.799 20.6987 172.607 21.4667 172.223 22.192C171.839 22.8747 171.391 23.472 170.879 23.984C170.153 23.6427 169.279 23.3227 168.255 23.024C167.231 22.6827 166.121 22.512 164.927 22.512ZM209.958 30.448C209.958 33.0933 209.552 35.4613 208.742 37.552C207.931 39.6 206.779 41.328 205.286 42.736C203.835 44.144 202.086 45.2107 200.038 45.936C197.99 46.6613 195.707 47.024 193.19 47.024C190.672 47.024 188.39 46.64 186.342 45.872C184.294 45.104 182.523 44.016 181.03 42.608C179.579 41.1573 178.448 39.408 177.638 37.36C176.827 35.312 176.422 33.008 176.422 30.448C176.422 27.9307 176.827 25.648 177.638 23.6C178.448 21.552 179.579 19.824 181.03 18.416C182.523 16.9653 184.294 15.856 186.342 15.088C188.39 14.32 190.672 13.936 193.19 13.936C195.707 13.936 197.99 14.3413 200.038 15.152C202.086 15.92 203.835 17.0293 205.286 18.48C206.779 19.888 207.931 21.616 208.742 23.664C209.552 25.712 209.958 27.9733 209.958 30.448ZM187.558 30.448C187.558 33.0507 188.048 35.056 189.03 36.464C190.054 37.8293 191.462 38.512 193.253 38.512C195.046 38.512 196.411 37.808 197.35 36.4C198.331 34.992 198.822 33.008 198.822 30.448C198.822 27.888 198.331 25.9253 197.35 24.56C196.368 23.152 194.982 22.448 193.19 22.448C191.398 22.448 190.011 23.152 189.03 24.56C188.048 25.9253 187.558 27.888 187.558 30.448ZM247.458 30.448C247.458 33.0933 247.052 35.4613 246.242 37.552C245.431 39.6 244.279 41.328 242.786 42.736C241.335 44.144 239.586 45.2107 237.538 45.936C235.49 46.6613 233.207 47.024 230.69 47.024C228.172 47.024 225.89 46.64 223.842 45.872C221.794 45.104 220.023 44.016 218.53 42.608C217.079 41.1573 215.948 39.408 215.138 37.36C214.327 35.312 213.922 33.008 213.922 30.448C213.922 27.9307 214.327 25.648 215.138 23.6C215.948 21.552 217.079 19.824 218.53 18.416C220.023 16.9653 221.794 15.856 223.842 15.088C225.89 14.32 228.172 13.936 230.69 13.936C233.207 13.936 235.49 14.3413 237.538 15.152C239.586 15.92 241.335 17.0293 242.786 18.48C244.279 19.888 245.431 21.616 246.242 23.664C247.052 25.712 247.458 27.9733 247.458 30.448ZM225.058 30.448C225.058 33.0507 225.548 35.056 226.53 36.464C227.554 37.8293 228.962 38.512 230.753 38.512C232.546 38.512 233.911 37.808 234.85 36.4C235.831 34.992 236.322 33.008 236.322 30.448C236.322 27.888 235.831 25.9253 234.85 24.56C233.868 23.152 232.482 22.448 230.69 22.448C228.898 22.448 227.511 23.152 226.53 24.56C225.548 25.9253 225.058 27.888 225.058 30.448ZM279.006 36.72C279.006 39.9627 277.79 42.5013 275.358 44.336C272.926 46.1707 269.342 47.088 264.606 47.088C262.814 47.088 261.15 46.96 259.614 46.704C258.078 46.448 256.755 46.064 255.646 45.552C254.579 44.9973 253.726 44.3147 253.086 43.504C252.488 42.6933 252.19 41.7333 252.19 40.624C252.19 39.6 252.403 38.7467 252.83 38.064C253.256 37.3387 253.768 36.7413 254.366 36.272C255.603 36.9547 257.011 37.5733 258.59 38.128C260.211 38.64 262.067 38.896 264.158 38.896C265.48 38.896 266.483 38.704 267.166 38.32C267.891 37.936 268.253 37.424 268.253 36.784C268.253 36.1867 267.998 35.7173 267.486 35.376C266.974 35.0347 266.12 34.7573 264.926 34.544L263.006 34.16C259.294 33.4347 256.52 32.304 254.686 30.768C252.894 29.1893 251.998 26.9493 251.998 24.048C251.998 22.4693 252.339 21.04 253.022 19.76C253.704 18.48 254.664 17.4133 255.902 16.56C257.139 15.7067 258.611 15.0453 260.318 14.576C262.067 14.1067 263.987 13.872 266.078 13.872C267.656 13.872 269.128 14 270.494 14.256C271.902 14.4693 273.118 14.8107 274.142 15.28C275.166 15.7493 275.976 16.368 276.574 17.136C277.171 17.8613 277.47 18.736 277.47 19.76C277.47 20.7413 277.278 21.5947 276.894 22.32C276.552 23.0027 276.104 23.5787 275.55 24.048C275.208 23.8347 274.696 23.6213 274.014 23.408C273.331 23.152 272.584 22.9387 271.774 22.768C270.963 22.5547 270.131 22.384 269.278 22.256C268.467 22.128 267.72 22.064 267.038 22.064C265.63 22.064 264.542 22.2347 263.774 22.576C263.006 22.8747 262.622 23.3653 262.622 24.048C262.622 24.5173 262.835 24.9013 263.262 25.2C263.688 25.4987 264.499 25.776 265.694 26.032L267.678 26.48C271.774 27.4187 274.675 28.72 276.382 30.384C278.131 32.0053 279.006 34.1173 279.006 36.72Z" fill="white"/>
</svg>
